{"title":"Ma Loute [Slack Bay] 2016 720p BRRip x264 titler","magnet":"magnet:?xt=urn:btih:28c4c90255e5f344eebe067b2b88cddc009858d8&dn=Ma+Loute+%5BSlack+Bay%5D+2016+720p+BRRip+x264+titler&tr=udp%3A%2F%2Ftracker.leechers-paradise.org%3A6969&tr=udp%3A%2F%2Fzer0day.ch%3A1337&tr=udp%3A%2F%2Fopen.demonii.com%3A1337&tr=udp%3A%2F%2Ftracker.coppersurfer.tk%3A6969&tr=udp%3A%2F%2Fexodus.desync.com%3A6969","uploader":"movieZ.freak","categoryP":"video","categoryS":"hd___movies","size":"1501119174","seeders":"0","leechers":"0","description":"SOURCE: Slack Bay 2016 LIMITED 720p BluRay x264 - USURY\r\n <a href=\"\nhttp://www.imdb.com/title/tt4726636/\" rel=\"nofollow\" target=\"_NEW\">\nhttp://www.imdb.com/title/tt4726636/</a>\r\n <a href=\"\nhttps://www.rottentomatoes.com/m/slack_bay_2017/\" rel=\"nofollow\" target=\"_NEW\">\nhttps://www.rottentomatoes.com/m/slack_bay_2017/</a>\r\n <a href=\"\nhttps://en.wikipedia.org/wiki/Slack_Bay\" rel=\"nofollow\" target=\"_NEW\">\nhttps://en.wikipedia.org/wiki/Slack_Bay</a>\r\n\r\n\r\n- SAMPLE: Yes\r\n\r\n- SUBTITLE: English\r\n\r\n- LANGUAGE / AUDIO: French, English\r\n\r\n\r\nSCREENSHOTS:\r\n------------------- <a href=\"\nhttps://imgur.com/a/t4exg\" rel=\"nofollow\" target=\"_NEW\">\nhttps://imgur.com/a/t4exg</a>\r\n\r\n\r\nDIRECTOR: Bruno Dumont\r\n\r\n\r\nCAST: Fabrice Luchini, Juliette Binoche, Valeria Bruni Tedeschi, Jean-Luc Vincent, Brandon Lavieville, Raph, Didier Despr&#xE9;s, ...\r\n\r\n\r\nPLOT:\r\n-----------\r\nThe bourgeois and extremely eccentric Van Peteghem family-among them Juliette Binoche, Fabrice Luchini, and Valeria Bruni Tedeschi-have settled in for another summer at their cliff-top villa overlooking the picturesque Slack Bay. Their leisurely rhythm of sunbathing and seaside constitutionals is soon interrupted by the arrival of two bumbling inspectors investigating a string of tourists gone missing (and serving full-on Keystone Kops). As the macabre mysteries mount and love blossoms between the family&apos;s genderqueer teen and the son of a local fisherman, Binoche and company ratchet the slapstick up to eleven.\r\n\r\nIt&apos;s no wonder director Bruno Dumont (Li&apos;l Quinquin, Camille Claudel 1915) cites Peter Sellers, Monty Python, and Laurel and Hardy as cinematic influences for his delightful foray into winking, absurdist farce.\r\n\r\n************************************\r\n\r\n- Duration: 2h 2min\r\n\r\n- Nominal bit rate: 1510 kb/s\r\n\r\n- Res: 1280 x 528\r\n\r\n- AR: 2.40:1\r\n\r\n- FPS: 23.976 FPS\r\n\r\n- Audio: AAC, 2 channels, 128 Kbps\r\n\r\n************************************\r\n\r\nGeneral\r\n------------\r\nFormat : Matroska\r\nFormat version : Version 4 / Version 2\r\nFile size : 1.39 GiB\r\nDuration : 2h 2min\r\nOverall bit rate : 1616 kb/s\r\nEncoded date : UTC 2017-12-27 22:31:06\r\nWriting application : mkvmerge v19.0.0 (&apos;Brave Captain&apos;) 64-bit\r\nWriting library : libebml v1.3.5 + libmatroska v1.4.8\r\n\r\nVideo\r\n-----------\r\nFormat : AVC\r\nFormat/Info : Advanced Video Codec\r\nFormat profile : <a href=\"/cdn-cgi/l/email-protection\" class=\"__cf_email__\" data-cfemail=\"5911303e3119156d7768\">[email&#xA0;protected]</a>\r\nFormat settings, CABAC : Yes\r\nFormat settings, ReFrames : 5 frames\r\nCodec ID : V_MPEG4/ISO/AVC\r\nDuration : 2h 2min\r\nBit rate : 1510 kb/s\r\nWidth : 1280 pixels\r\nHeight : 528 pixels\r\nDisplay aspect ratio : 2.40:1\r\nFrame rate mode : Constant\r\nFrame rate : 23.976 FPS\r\nColor space : YUV\r\nChroma subsampling : 4:2:0\r\nBit depth : 8 bits\r\nScan type : Progressive\r\nBits/(Pixel*Frame) : 0.093\r\nStream size : 1.27 GiB (92%)\r\nWriting library : x264 core 142\r\nEncoding settings : cabac=1 / ref=5\r\nDefault : Yes\r\nForced : No\r\n\r\nAudio\r\n--------\r\nFormat : AAC\r\nFormat/Info : Advanced Audio Codec\r\nFormat profile : LC\r\nCodec ID : A_AAC\r\nDuration : 2h 2min\r\nBit rate : 128 kb/s\r\nChannel(s) : 2 channels\r\nChannel positions : Front: L R\r\nSampling rate : 48.0 kHz\r\nCompression mode : Lossy\r\nStream size : 112 MiB (8%)\r\nTitle : Stereo\r\nLanguage : French\r\nDefault : Yes\r\nForced : No","last_updated":"2017-12-28T12:06:36.521Z","parsed":{"xt":"urn:btih:28c4c90255e5f344eebe067b2b88cddc009858d8","dn":"Ma Loute [Slack Bay] 2016 720p BRRip x264 titler","tr":["udp://exodus.desync.com:6969","udp://open.demonii.com:1337","udp://tracker.coppersurfer.tk:6969","udp://tracker.leechers-paradise.org:6969","udp://zer0day.ch:1337"],"infoHash":"28c4c90255e5f344eebe067b2b88cddc009858d8","infoHashBuffer":{"type":"Buffer","data":[40,196,201,2,85,229,243,68,238,190,6,123,43,136,205,220,0,152,88,216]},"name":"Ma Loute [Slack Bay] 2016 720p BRRip x264 titler","announce":["udp://exodus.desync.com:6969","udp://open.demonii.com:1337","udp://tracker.coppersurfer.tk:6969","udp://tracker.leechers-paradise.org:6969","udp://zer0day.ch:1337"],"urlList":[]}}